# xmcd
#
# Track frame offsets:
#	150
#	17925
#	34469
#	50437
#	64966
#	80014
#	95278
#	108020
#	129002
#	146600
#	161337
#	179842
#
# Disc length: 2591 seconds
#
# Revision: 0
# Processed by: cddbd v1.4PL0 Copyright (c) Steve Scherf et al.
# Submitted via: dBpowerAMP V4.0
#
DISCID=a00a1d0c
DTITLE=Eric Horner - Prayer Warrior
DYEAR=2003
DGENRE=Gospel
TTITLE0=Prayer Warrior
TTITLE1=When Jesus Mentions My Name
TTITLE2=Plantin' Seeds
TTITLE3=Till You Start Walkin'
TTITLE4=Send Down Some Rain
TTITLE5=When You Cross the Bloodline
TTITLE6=What I Believe
TTITLE7=No Place Like Home
TTITLE8=One Nation Under God
TTITLE9=Step On Out of the Boat
TTITLE10=He's So Real
TTITLE11=I'll Be Glory Bound
EXTD=American Son Records (c) 2003
EXTT0=
EXTT1=
EXTT2=
EXTT3=
EXTT4=
EXTT5=
EXTT6=
EXTT7=
EXTT8=
EXTT9=
EXTT10=
EXTT11=
PLAYORDER=
